<?xml version="1.0" encoding="UTF-8"?>
			<svg xmlns="http://www.w3.org/2000/svg" xmlns:xlink="http://www.w3.org/1999/xlink" width="42px" height="42px"
				viewBox="0 0 42 42" version="1.1">
				<g id="surface1">
					<path style="
								stroke: none;
								fill-rule: nonzero;
								fill: rgb(9.019608%, 9.019608%, 9.019608%);
								fill-opacity: 1;
							" d="M 29.203125 42.066406 C 19.46875 42.066406 9.765625 42.066406 0.0664062 42.066406 C 0.0664062 28.066406 0.0664062 14.066406 0.0664062 0.0664062 C 14.066406 0.0664062 28.066406 0.0664062 42.066406 0.0664062 C 42.066406 14.066406 42.066406 28.066406 42.066406 42.066406 C 37.789062 42.066406 33.511719 42.066406 29.203125 42.066406 M 29.820312 20.632812 C 28.886719 20.625 27.953125 20.617188 27.019531 20.613281 C 26.980469 20.613281 26.945312 20.652344 26.855469 20.675781 C 26.839844 20.675781 26.820312 20.679688 26.761719 20.683594 C 26.703125 20.589844 26.644531 20.5 26.613281 20.40625 C 26.613281 20.40625 26.636719 20.410156 26.679688 20.375 C 26.6875 20.320312 26.707031 20.269531 26.707031 20.214844 C 26.710938 18.128906 26.710938 16.046875 26.707031 13.960938 C 26.707031 13.878906 26.667969 13.800781 26.640625 13.679688 C 26.605469 13.648438 26.566406 13.617188 26.507812 13.542969 C 26.429688 13.21875 26.207031 13.023438 25.890625 13.007812 C 25.3125 12.984375 24.730469 12.976562 24.148438 13.011719 C 23.746094 13.035156 23.515625 13.304688 23.441406 13.722656 C 23.414062 13.742188 23.386719 13.761719 23.320312 13.820312 C 23.3125 13.886719 23.296875 13.949219 23.296875 14.015625 C 23.296875 16.578125 23.296875 19.144531 23.300781 21.710938 C 23.300781 21.800781 23.339844 21.894531 23.402344 21.984375 C 23.425781 21.984375 23.453125 21.984375 23.496094 22.03125 C 23.554688 22.660156 23.796875 22.929688 24.414062 22.964844 C 24.980469 23 25.550781 22.976562 26.117188 22.976562 C 27.179688 22.980469 28.214844 22.851562 29.140625 22.296875 C 29.492188 22.085938 29.828125 21.828125 30.109375 21.535156 C 30.421875 21.207031 30.335938 20.976562 29.917969 20.753906 C 29.898438 20.726562 29.878906 20.699219 29.820312 20.632812 M 32.617188 10.179688 C 32.617188 10.179688 32.597656 10.195312 32.601562 10.148438 C 32.550781 10.097656 32.507812 10.027344 32.445312 10.003906 C 31.761719 9.734375 31.058594 9.546875 30.277344 9.476562 C 29.621094 9.46875 28.964844 9.457031 28.308594 9.457031 C 28.257812 9.457031 28.203125 9.535156 28.09375 9.585938 C 27.742188 9.582031 27.386719 9.578125 27.023438 9.523438 C 26.316406 9.363281 25.632812 9.417969 24.992188 9.773438 C 24.847656 9.855469 24.742188 10.007812 24.597656 10.167969 C 24.15625 10.496094 23.746094 10.851562 23.550781 11.386719 C 23.449219 11.660156 23.429688 11.921875 23.773438 12.105469 C 23.8125 12.097656 23.847656 12.085938 23.945312 12.066406 C 25.402344 12.128906 26.867188 11.929688 28.316406 12.1875 C 28.835938 12.28125 29.375 12.273438 29.878906 12.40625 C 31.183594 12.75 32.207031 13.480469 32.769531 14.753906 C 33.175781 15.683594 33.253906 16.671875 33.1875 17.675781 C 33.101562 18.910156 32.71875 20.039062 31.945312 21.023438 C 31.453125 21.652344 30.820312 22.109375 30.183594 22.574219 C 30.058594 22.664062 29.949219 22.882812 29.964844 23.027344 C 29.992188 23.257812 30.230469 23.292969 30.4375 23.265625 C 32.101562 23.042969 33.589844 22.414062 34.675781 21.097656 C 36.226562 19.21875 36.789062 17.058594 36.25 14.65625 C 35.953125 13.328125 35.402344 12.125 34.300781 11.265625 C 33.816406 10.886719 33.261719 10.59375 32.738281 10.222656 C 32.691406 10.214844 32.644531 10.203125 32.617188 10.179688 M 23.324219 24.777344 C 23.316406 24.832031 23.296875 24.886719 23.296875 24.9375 C 23.296875 26.671875 23.296875 28.40625 23.300781 30.140625 C 23.300781 30.222656 23.339844 30.304688 23.378906 30.414062 C 23.414062 30.425781 23.445312 30.4375 23.496094 30.496094 C 23.605469 30.902344 23.757812 31.019531 24.167969 30.96875 C 24.355469 30.945312 24.554688 30.902344 24.730469 30.820312 C 25.527344 30.449219 26.347656 30.082031 26.578125 29.054688 C 26.597656 28.996094 26.640625 28.941406 26.640625 28.882812 C 26.644531 27.535156 26.644531 26.1875 26.636719 24.839844 C 26.636719 24.757812 26.566406 24.675781 26.511719 24.558594 C 26.425781 24.210938 26.199219 23.992188 25.851562 23.972656 C 25.335938 23.941406 24.816406 23.933594 24.296875 23.96875 C 23.792969 24.003906 23.574219 24.242188 23.4375 24.746094 C 23.414062 24.742188 23.390625 24.742188 23.324219 24.777344 M 13.480469 11.328125 C 13.46875 11.433594 13.453125 11.542969 13.453125 11.652344 C 13.453125 17.585938 13.453125 23.519531 13.457031 29.453125 C 13.457031 29.566406 13.496094 29.679688 13.527344 29.820312 C 13.539062 29.835938 13.554688 29.847656 13.574219 29.910156 C 13.550781 30.070312 13.550781 30.242188 13.496094 30.390625 C 13.308594 30.898438 13.09375 31.398438 12.910156 31.90625 C 12.859375 32.046875 12.804688 32.265625 12.871094 32.347656 C 12.957031 32.449219 13.171875 32.5 13.324219 32.488281 C 13.554688 32.472656 13.800781 32.417969 14.015625 32.320312 C 14.914062 31.921875 15.484375 31.1875 15.933594 30.347656 C 16.453125 29.375 16.632812 28.320312 16.734375 27.21875 C 16.753906 27.117188 16.796875 27.015625 16.796875 26.914062 C 16.800781 26.171875 16.800781 25.429688 16.800781 24.6875 C 16.800781 19.859375 16.800781 15.035156 16.792969 10.207031 C 16.792969 10.085938 16.722656 9.964844 16.664062 9.800781 C 16.570312 9.375 16.390625 9.234375 15.972656 9.3125 C 15.277344 9.445312 14.707031 9.824219 14.183594 10.28125 C 13.890625 10.535156 13.710938 10.847656 13.601562 11.230469 C 13.574219 11.25 13.546875 11.269531 13.480469 11.328125 M 9.636719 32.941406 C 9.996094 33.070312 10.316406 32.941406 10.652344 32.8125 C 11.632812 32.4375 12.179688 31.683594 12.449219 30.71875 C 12.597656 30.191406 12.3125 29.964844 11.804688 30.136719 C 11.710938 30.167969 11.625 30.214844 11.535156 30.253906 C 10.71875 30.597656 10.410156 30.535156 9.792969 29.902344 C 9.738281 29.847656 9.6875 29.792969 9.632812 29.738281 C 9.335938 29.4375 9.058594 29.375 8.6875 29.582031 C 8.132812 29.890625 7.761719 30.367188 7.558594 30.96875 C 7.425781 31.363281 7.539062 31.722656 7.808594 32.03125 C 8.144531 32.414062 8.558594 32.695312 9.054688 32.835938 C 9.226562 32.886719 9.40625 32.910156 9.636719 32.941406 Z M 9.636719 32.941406 " />
					<path style="
								stroke: none;
								fill-rule: nonzero;
								fill: rgb(99.607843%, 99.607843%, 99.607843%);
								fill-opacity: 1;
							" d="M 16.683594 27.234375 C 16.632812 28.320312 16.453125 29.375 15.933594 30.347656 C 15.484375 31.1875 14.914062 31.921875 14.015625 32.320312 C 13.800781 32.417969 13.554688 32.472656 13.324219 32.488281 C 13.171875 32.5 12.957031 32.449219 12.871094 32.347656 C 12.804688 32.265625 12.859375 32.046875 12.910156 31.90625 C 13.09375 31.398438 13.308594 30.898438 13.496094 30.390625 C 13.550781 30.242188 13.550781 30.070312 13.582031 29.855469 C 13.59375 29.425781 13.613281 29.054688 13.613281 28.683594 C 13.613281 23.082031 13.613281 17.480469 13.613281 11.878906 C 13.613281 11.660156 13.628906 11.441406 13.636719 11.222656 C 13.710938 10.847656 13.890625 10.535156 14.183594 10.28125 C 14.707031 9.824219 15.277344 9.445312 15.972656 9.3125 C 16.390625 9.234375 16.570312 9.375 16.671875 9.851562 C 16.679688 10.082031 16.683594 10.253906 16.683594 10.429688 C 16.683594 16.03125 16.683594 21.632812 16.683594 27.234375 Z M 16.683594 27.234375 " />
					<path style="
								stroke: none;
								fill-rule: nonzero;
								fill: rgb(99.215686%, 99.215686%, 99.215686%);
								fill-opacity: 1;
							" d="M 32.738281 10.261719 C 33.261719 10.59375 33.816406 10.886719 34.300781 11.265625 C 35.402344 12.125 35.953125 13.328125 36.25 14.65625 C 36.789062 17.058594 36.226562 19.21875 34.675781 21.097656 C 33.589844 22.414062 32.101562 23.042969 30.4375 23.265625 C 30.230469 23.292969 29.992188 23.257812 29.964844 23.027344 C 29.949219 22.882812 30.058594 22.664062 30.183594 22.574219 C 30.820312 22.109375 31.453125 21.652344 31.945312 21.023438 C 32.71875 20.039062 33.101562 18.910156 33.1875 17.675781 C 33.253906 16.671875 33.175781 15.683594 32.769531 14.753906 C 32.207031 13.480469 31.183594 12.75 29.878906 12.40625 C 29.375 12.273438 28.835938 12.28125 28.316406 12.1875 C 26.867188 11.929688 25.402344 12.128906 23.894531 12.066406 C 23.816406 12.070312 23.785156 12.074219 23.757812 12.074219 C 23.429688 11.921875 23.449219 11.660156 23.550781 11.386719 C 23.746094 10.851562 24.15625 10.496094 24.628906 10.140625 C 25.144531 9.789062 25.664062 9.574219 26.261719 9.582031 C 26.519531 9.585938 26.777344 9.578125 27.035156 9.574219 C 27.386719 9.578125 27.742188 9.582031 28.152344 9.585938 C 28.71875 9.585938 29.222656 9.582031 29.757812 9.582031 C 30.757812 9.628906 31.695312 9.824219 32.597656 10.195312 C 32.597656 10.195312 32.617188 10.179688 32.617188 10.203125 C 32.660156 10.238281 32.699219 10.25 32.738281 10.261719 Z M 32.738281 10.261719 " />
					<path style="
								stroke: none;
								fill-rule: nonzero;
								fill: rgb(99.607843%, 99.607843%, 99.607843%);
								fill-opacity: 1;
							" d="M 23.480469 13.71875 C 23.515625 13.304688 23.746094 13.035156 24.148438 13.011719 C 24.730469 12.976562 25.3125 12.984375 25.890625 13.007812 C 26.207031 13.023438 26.429688 13.21875 26.515625 13.59375 C 26.53125 15.71875 26.53125 17.789062 26.542969 19.859375 C 26.542969 20.042969 26.570312 20.226562 26.589844 20.410156 C 26.644531 20.5 26.703125 20.589844 26.800781 20.703125 C 27.015625 20.738281 27.183594 20.765625 27.355469 20.769531 C 28.210938 20.78125 29.066406 20.78125 29.921875 20.789062 C 30.335938 20.976562 30.421875 21.207031 30.109375 21.535156 C 29.828125 21.828125 29.492188 22.085938 29.140625 22.296875 C 28.214844 22.851562 27.179688 22.980469 26.117188 22.976562 C 25.550781 22.976562 24.980469 23 24.414062 22.964844 C 23.796875 22.929688 23.554688 22.660156 23.488281 21.976562 C 23.480469 19.1875 23.480469 16.453125 23.480469 13.71875 Z M 23.480469 13.71875 " />
					<path style="
								stroke: none;
								fill-rule: nonzero;
								fill: rgb(99.607843%, 99.607843%, 99.607843%);
								fill-opacity: 1;
							" d="M 23.476562 24.742188 C 23.574219 24.242188 23.792969 24.003906 24.296875 23.96875 C 24.816406 23.933594 25.335938 23.941406 25.851562 23.972656 C 26.199219 23.992188 26.425781 24.210938 26.515625 24.605469 C 26.527344 26.125 26.527344 27.597656 26.527344 29.070312 C 26.347656 30.082031 25.527344 30.449219 24.730469 30.820312 C 24.554688 30.902344 24.355469 30.945312 24.167969 30.96875 C 23.757812 31.019531 23.605469 30.902344 23.488281 30.441406 C 23.480469 28.503906 23.480469 26.625 23.476562 24.742188 Z M 23.476562 24.742188 " />
					<path style="
								stroke: none;
								fill-rule: nonzero;
								fill: rgb(98.823529%, 98.823529%, 98.823529%);
								fill-opacity: 1;
							" d="M 9.609375 32.941406 C 9.40625 32.910156 9.226562 32.886719 9.054688 32.835938 C 8.558594 32.695312 8.144531 32.414062 7.808594 32.03125 C 7.539062 31.722656 7.425781 31.363281 7.558594 30.96875 C 7.761719 30.367188 8.132812 29.890625 8.6875 29.582031 C 9.058594 29.375 9.335938 29.4375 9.632812 29.738281 C 9.6875 29.792969 9.738281 29.847656 9.792969 29.902344 C 10.410156 30.535156 10.71875 30.597656 11.535156 30.253906 C 11.625 30.214844 11.710938 30.167969 11.804688 30.136719 C 12.3125 29.964844 12.597656 30.191406 12.449219 30.71875 C 12.179688 31.683594 11.632812 32.4375 10.652344 32.8125 C 10.316406 32.941406 9.996094 33.070312 9.609375 32.941406 Z M 9.609375 32.941406 " />
					<path style="
								stroke: none;
								fill-rule: nonzero;
								fill: rgb(0%, 0%, 0%);
								fill-opacity: 1;
							" d="M 16.707031 27.226562 C 16.683594 21.632812 16.683594 16.03125 16.683594 10.429688 C 16.683594 10.253906 16.679688 10.082031 16.679688 9.875 C 16.722656 9.964844 16.792969 10.085938 16.792969 10.207031 C 16.800781 15.035156 16.800781 19.859375 16.800781 24.6875 C 16.800781 25.429688 16.800781 26.171875 16.796875 26.914062 C 16.796875 27.015625 16.753906 27.117188 16.707031 27.226562 Z M 16.707031 27.226562 " />
					<path style="
								stroke: none;
								fill-rule: nonzero;
								fill: rgb(0%, 0%, 0%);
								fill-opacity: 1;
							" d="M 13.617188 11.226562 C 13.628906 11.441406 13.613281 11.660156 13.613281 11.878906 C 13.613281 17.480469 13.613281 23.082031 13.613281 28.683594 C 13.613281 29.054688 13.59375 29.425781 13.578125 29.828125 C 13.554688 29.847656 13.539062 29.835938 13.523438 29.773438 C 13.519531 23.582031 13.519531 17.4375 13.519531 11.289062 C 13.546875 11.269531 13.574219 11.25 13.617188 11.226562 Z M 13.617188 11.226562 " />
					<path style="
								stroke: none;
								fill-rule: nonzero;
								fill: rgb(13.333333%, 13.333333%, 13.333333%);
								fill-opacity: 1;
							" d="M 13.5 11.308594 C 13.519531 17.4375 13.519531 23.582031 13.519531 29.761719 C 13.496094 29.679688 13.457031 29.566406 13.457031 29.453125 C 13.453125 23.519531 13.453125 17.585938 13.453125 11.652344 C 13.453125 11.542969 13.46875 11.433594 13.5 11.308594 Z M 13.5 11.308594 " />
					<path style="
								stroke: none;
								fill-rule: nonzero;
								fill: rgb(0%, 0%, 0%);
								fill-opacity: 1;
							" d="M 23.460938 13.71875 C 23.480469 16.453125 23.480469 19.1875 23.476562 21.953125 C 23.453125 21.984375 23.425781 21.984375 23.382812 21.953125 C 23.363281 19.210938 23.363281 16.496094 23.359375 13.78125 C 23.386719 13.761719 23.414062 13.742188 23.460938 13.71875 Z M 23.460938 13.71875 " />
					<path style="
								stroke: none;
								fill-rule: nonzero;
								fill: rgb(0%, 0%, 0%);
								fill-opacity: 1;
							" d="M 26.601562 20.40625 C 26.570312 20.226562 26.542969 20.042969 26.542969 19.859375 C 26.53125 17.789062 26.53125 15.71875 26.527344 13.617188 C 26.566406 13.617188 26.605469 13.648438 26.644531 13.730469 C 26.640625 15.988281 26.640625 18.199219 26.636719 20.410156 C 26.636719 20.410156 26.613281 20.40625 26.601562 20.40625 Z M 26.601562 20.40625 " />
					<path style="
								stroke: none;
								fill-rule: nonzero;
								fill: rgb(0%, 0%, 0%);
								fill-opacity: 1;
							" d="M 23.457031 24.742188 C 23.480469 26.625 23.480469 28.503906 23.480469 30.417969 C 23.445312 30.4375 23.414062 30.425781 23.371094 30.367188 C 23.363281 28.460938 23.363281 26.601562 23.363281 24.742188 C 23.390625 24.742188 23.414062 24.742188 23.457031 24.742188 Z M 23.457031 24.742188 " />
					<path style="
								stroke: none;
								fill-rule: nonzero;
								fill: rgb(0%, 0%, 0%);
								fill-opacity: 1;
							" d="M 26.550781 29.0625 C 26.527344 27.597656 26.527344 26.125 26.527344 24.625 C 26.566406 24.675781 26.636719 24.757812 26.636719 24.839844 C 26.644531 26.1875 26.644531 27.535156 26.640625 28.882812 C 26.640625 28.941406 26.597656 28.996094 26.550781 29.0625 Z M 26.550781 29.0625 " />
					<path style="
								stroke: none;
								fill-rule: nonzero;
								fill: rgb(13.333333%, 13.333333%, 13.333333%);
								fill-opacity: 1;
							" d="M 23.339844 13.800781 C 23.363281 16.496094 23.363281 19.210938 23.363281 21.953125 C 23.339844 21.894531 23.300781 21.800781 23.300781 21.710938 C 23.296875 19.144531 23.296875 16.578125 23.296875 14.015625 C 23.296875 13.949219 23.3125 13.886719 23.339844 13.800781 Z M 23.339844 13.800781 " />
					<path style="
								stroke: none;
								fill-rule: nonzero;
								fill: rgb(13.333333%, 13.333333%, 13.333333%);
								fill-opacity: 1;
							" d="M 26.65625 20.390625 C 26.640625 18.199219 26.640625 15.988281 26.644531 13.75 C 26.667969 13.800781 26.707031 13.878906 26.707031 13.960938 C 26.710938 16.046875 26.710938 18.128906 26.707031 20.214844 C 26.707031 20.269531 26.6875 20.320312 26.65625 20.390625 Z M 26.65625 20.390625 " />
					<path style="
								stroke: none;
								fill-rule: nonzero;
								fill: rgb(0%, 0%, 0%);
								fill-opacity: 1;
							" d="M 32.601562 10.171875 C 31.695312 9.824219 30.757812 9.628906 29.773438 9.5625 C 29.949219 9.53125 30.132812 9.523438 30.316406 9.515625 C 31.058594 9.546875 31.761719 9.734375 32.445312 10.003906 C 32.507812 10.027344 32.550781 10.097656 32.601562 10.171875 Z M 32.601562 10.171875 " />
					<path style="
								stroke: none;
								fill-rule: nonzero;
								fill: rgb(0%, 0%, 0%);
								fill-opacity: 1;
							" d="M 29.921875 20.769531 C 29.066406 20.78125 28.210938 20.78125 27.355469 20.769531 C 27.183594 20.765625 27.015625 20.738281 26.824219 20.699219 C 26.820312 20.679688 26.839844 20.675781 26.914062 20.675781 C 27.933594 20.671875 28.894531 20.671875 29.859375 20.671875 C 29.878906 20.699219 29.898438 20.726562 29.921875 20.769531 Z M 29.921875 20.769531 " />
					<path style="
								stroke: none;
								fill-rule: nonzero;
								fill: rgb(13.333333%, 13.333333%, 13.333333%);
								fill-opacity: 1;
							" d="M 23.34375 24.757812 C 23.363281 26.601562 23.363281 28.460938 23.363281 30.351562 C 23.339844 30.304688 23.300781 30.222656 23.300781 30.140625 C 23.296875 28.40625 23.296875 26.671875 23.296875 24.9375 C 23.296875 24.886719 23.316406 24.832031 23.34375 24.757812 Z M 23.34375 24.757812 " />
					<path style="
								stroke: none;
								fill-rule: nonzero;
								fill: rgb(0%, 0%, 0%);
								fill-opacity: 1;
							" d="M 27.03125 9.550781 C 26.777344 9.578125 26.519531 9.585938 26.261719 9.582031 C 25.664062 9.574219 25.144531 9.789062 24.636719 10.121094 C 24.742188 10.007812 24.847656 9.855469 24.992188 9.773438 C 25.632812 9.417969 26.316406 9.363281 27.03125 9.550781 Z M 27.03125 9.550781 " />
					<path style="
								stroke: none;
								fill-rule: nonzero;
								fill: rgb(13.333333%, 13.333333%, 13.333333%);
								fill-opacity: 1;
							" d="M 30.296875 9.496094 C 30.132812 9.523438 29.949219 9.53125 29.746094 9.558594 C 29.222656 9.582031 28.71875 9.585938 28.183594 9.582031 C 28.203125 9.535156 28.257812 9.457031 28.308594 9.457031 C 28.964844 9.457031 29.621094 9.46875 30.296875 9.496094 Z M 30.296875 9.496094 " />
					<path style="
								stroke: none;
								fill-rule: nonzero;
								fill: rgb(13.333333%, 13.333333%, 13.333333%);
								fill-opacity: 1;
							" d="M 29.839844 20.652344 C 28.894531 20.671875 27.933594 20.671875 26.9375 20.671875 C 26.945312 20.652344 26.980469 20.613281 27.019531 20.613281 C 27.953125 20.617188 28.886719 20.625 29.839844 20.652344 Z M 29.839844 20.652344 " />
					<path style="
								stroke: none;
								fill-rule: nonzero;
								fill: rgb(0%, 0%, 0%);
								fill-opacity: 1;
							" d="M 32.738281 10.242188 C 32.699219 10.25 32.660156 10.238281 32.609375 10.210938 C 32.644531 10.203125 32.691406 10.214844 32.738281 10.242188 Z M 32.738281 10.242188 " />
					<path style="
								stroke: none;
								fill-rule: nonzero;
								fill: rgb(0%, 0%, 0%);
								fill-opacity: 1;
							" d="M 23.765625 12.089844 C 23.785156 12.074219 23.816406 12.070312 23.867188 12.074219 C 23.847656 12.085938 23.8125 12.097656 23.765625 12.089844 Z M 23.765625 12.089844 " />
				</g>
			</svg>