<?xml version="1.0" encoding="UTF-8"?>
							<svg xmlns="http://www.w3.org/2000/svg" xmlns:xlink="http://www.w3.org/1999/xlink" viewBox="0 0 42 42"
								width="42px" height="42px">
								<g id="surface101279471">
									<path style="
												stroke: none;
												fill-rule: nonzero;
												fill: #6e5494;
												fill-opacity: 1;
											" d="M 21 3.9375 C 11.578125 3.9375 3.9375 11.578125 3.9375 21 C 3.9375 29.058594 9.523438 35.804688 17.03125 37.59375 C 16.644531 37.5 16.257812 37.398438 15.882812 37.28125 L 15.882812 33.371094 C 15.882812 33.371094 15.242188 33.582031 14.386719 33.582031 C 12 33.582031 11.011719 31.453125 10.761719 30.382812 C 10.613281 29.734375 10.21875 29.113281 9.796875 28.738281 C 9.296875 28.289062 9.058594 28.289062 9.054688 28.132812 C 9.050781 27.8125 9.488281 27.824219 9.695312 27.824219 C 10.761719 27.824219 11.570312 28.960938 11.945312 29.546875 C 12.875 30.996094 13.875 31.238281 14.386719 31.238281 C 15.027344 31.238281 15.582031 31.140625 15.960938 30.957031 C 16.136719 29.71875 16.6875 28.613281 17.585938 27.824219 C 13.585938 27.023438 10.761719 24.730469 10.761719 21 C 10.761719 19.078125 11.535156 17.3125 12.820312 15.886719 C 12.6875 15.515625 12.46875 14.761719 12.46875 13.535156 C 12.46875 12.726562 12.523438 11.730469 12.894531 10.761719 C 12.894531 10.761719 15.328125 10.78125 17.625 12.953125 C 18.683594 12.644531 19.816406 12.46875 21 12.46875 C 22.183594 12.46875 23.316406 12.644531 24.375 12.953125 C 26.671875 10.78125 29.105469 10.761719 29.105469 10.761719 C 29.476562 11.730469 29.53125 12.726562 29.53125 13.535156 C 29.53125 14.859375 29.355469 15.628906 29.246094 15.960938 C 30.492188 17.375 31.238281 19.113281 31.238281 21 C 31.238281 24.730469 28.414062 27.023438 24.414062 27.824219 C 25.480469 28.761719 26.117188 30.128906 26.117188 31.664062 L 26.117188 37.28125 C 25.742188 37.398438 25.355469 37.5 24.96875 37.59375 C 32.476562 35.804688 38.0625 29.058594 38.0625 21 C 38.0625 11.578125 30.421875 3.9375 21 3.9375 Z M 22.191406 38.015625 C 21.796875 38.042969 21.398438 38.0625 21 38.0625 C 21.398438 38.0625 21.796875 38.042969 22.191406 38.015625 Z M 24.796875 37.632812 C 24.03125 37.808594 23.25 37.929688 22.449219 37.996094 C 23.25 37.929688 24.03125 37.804688 24.796875 37.632812 Z M 21 38.0625 C 20.601562 38.0625 20.203125 38.042969 19.808594 38.015625 C 20.203125 38.042969 20.601562 38.0625 21 38.0625 Z M 19.546875 37.996094 C 18.75 37.929688 17.964844 37.808594 17.203125 37.632812 C 17.96875 37.804688 18.75 37.929688 19.546875 37.996094 Z M 19.546875 37.996094 " />
								</g>
							</svg>