<?xml version="1.0" encoding="UTF-8"?>
							<svg xmlns="http://www.w3.org/2000/svg" xmlns:xlink="http://www.w3.org/1999/xlink" viewBox="0 0 42 42"
								width="42px" height="42px">
								<g id="surface101184278">
									<path style="
												stroke: none;
												fill-rule: nonzero;
												fill: #0072b1;
												fill-opacity: 1;
											" d="M 6.71875 2.527344 C 3.804688 2.527344 1.6875 4.273438 1.6875 6.675781 C 1.6875 9.089844 3.855469 10.910156 6.71875 10.910156 C 9.636719 10.910156 11.75 9.132812 11.75 6.628906 C 11.617188 4.21875 9.542969 2.527344 6.71875 2.527344 Z M 2.519531 12.601562 C 2.058594 12.601562 1.679688 12.976562 1.679688 13.441406 L 1.679688 37.800781 C 1.679688 38.261719 2.058594 38.640625 2.519531 38.640625 L 10.921875 38.640625 C 11.382812 38.640625 11.761719 38.261719 11.761719 37.800781 L 11.761719 13.441406 C 11.761719 12.976562 11.382812 12.601562 10.921875 12.601562 Z M 15.121094 12.601562 C 14.65625 12.601562 14.28125 12.976562 14.28125 13.441406 L 14.28125 37.800781 C 14.28125 38.261719 14.65625 38.640625 15.121094 38.640625 L 22.679688 38.640625 C 23.144531 38.640625 23.519531 38.265625 23.519531 37.800781 L 23.519531 24.78125 C 23.519531 22.789062 25.050781 21.167969 27 21.015625 C 27.097656 21 27.199219 21 27.300781 21 C 27.402344 21 27.5 21 27.601562 21.015625 C 29.550781 21.167969 31.078125 22.789062 31.078125 24.78125 L 31.078125 37.800781 C 31.078125 38.265625 31.457031 38.640625 31.921875 38.640625 L 39.480469 38.640625 C 39.941406 38.640625 40.320312 38.261719 40.320312 37.800781 L 40.320312 23.519531 C 40.320312 18.085938 37.40625 12.601562 30.902344 12.601562 C 27.945312 12.601562 25.710938 13.742188 24.359375 14.691406 L 24.359375 13.441406 C 24.359375 12.976562 23.980469 12.601562 23.519531 12.601562 Z M 15.121094 12.601562 " />
								</g>
							</svg>