<?xml version="1.0" encoding="UTF-8"?>
							<svg xmlns="http://www.w3.org/2000/svg" xmlns:xlink="http://www.w3.org/1999/xlink" viewBox="0 0 42 42"
								width="42px" height="42px">
								<g id="surface101128743">
									<path style="
												stroke: none;
												fill-rule: nonzero;
												fill: #00acee;
												fill-opacity: 1;
											" d="M 42.050781 8.765625 C 40.5 9.457031 38.835938 9.917969 37.089844 10.128906 C 38.871094 9.058594 40.246094 7.367188 40.886719 5.351562 C 39.222656 6.339844 37.367188 7.058594 35.402344 7.445312 C 33.828125 5.765625 31.582031 4.71875 29.097656 4.71875 C 24.328125 4.71875 20.457031 8.582031 20.457031 13.355469 C 20.457031 14.03125 20.539062 14.691406 20.683594 15.324219 C 13.503906 14.960938 7.144531 11.523438 2.882812 6.296875 C 2.136719 7.578125 1.710938 9.058594 1.710938 10.640625 C 1.710938 13.636719 3.234375 16.28125 5.554688 17.832031 C 4.136719 17.789062 2.804688 17.398438 1.640625 16.75 C 1.640625 16.785156 1.640625 16.824219 1.640625 16.859375 C 1.640625 21.046875 4.621094 24.535156 8.566406 25.332031 C 7.84375 25.527344 7.082031 25.632812 6.292969 25.632812 C 5.734375 25.632812 5.195312 25.582031 4.664062 25.476562 C 5.769531 28.90625 8.957031 31.40625 12.734375 31.476562 C 9.78125 33.792969 6.058594 35.171875 2.007812 35.171875 C 1.308594 35.171875 0.625 35.132812 -0.0507812 35.050781 C 3.769531 37.503906 8.3125 38.933594 13.191406 38.933594 C 29.078125 38.933594 37.765625 25.769531 37.765625 14.359375 C 37.765625 13.984375 37.757812 13.605469 37.746094 13.238281 C 39.429688 12.023438 40.894531 10.5 42.050781 8.765625 Z M 42.050781 8.765625 " />
								</g>
							</svg>